<svg width="24" height="20" viewBox="0 0 24 20" fill="none" xmlns="http://www.w3.org/2000/svg">
<path d="M22.0192 9.85258H1.95878C0.876954 9.85145 0.00112393 8.97563 0 7.89492V7.87916C0.00112566 6.79846 0.876954 5.92263 1.95878 5.92151H22.0192C23.101 5.92263 23.9769 6.79846 23.978 7.87916V7.89492C23.9769 8.97563 23.101 9.85146 22.0192 9.85258ZM1.95878 6.84362C1.3869 6.84474 0.923092 7.30855 0.923092 7.8793V7.89507C0.923092 8.46582 1.3869 8.9296 1.95878 8.93075H22.0192C22.5911 8.92963 23.0549 8.46582 23.0549 7.89507V7.8793C23.0549 7.30855 22.5911 6.84477 22.0192 6.84362H1.95878Z" fill="#616161"/>
<path d="M19.8307 20H4.14694C3.92855 20 3.74054 19.848 3.69552 19.6341L1.56 9.48677C1.53298 9.36632 1.55549 9.23911 1.62191 9.13553C1.68833 9.03196 1.79415 8.95879 1.91459 8.9329C2.03618 8.90813 2.16226 8.93177 2.26468 9.00045C2.36825 9.06911 2.43917 9.17493 2.46281 9.2965L4.52064 19.0779H19.4568L21.5146 9.29736C21.5383 9.17578 21.6092 9.06884 21.7128 9.00131C21.8152 8.93264 21.9413 8.90787 22.0629 8.93376C22.1833 8.95966 22.2891 9.0317 22.3555 9.13639C22.422 9.23996 22.4445 9.36717 22.4175 9.48764L20.2819 19.6327C20.238 19.8466 20.0489 19.9997 19.8305 19.9997L19.8307 20Z" fill="#616161"/>
<path d="M6.47094 6.8436C6.30659 6.8436 6.1546 6.75579 6.07244 6.61283C5.99026 6.47098 5.99026 6.29536 6.07244 6.15239L8.70889 1.5852C8.83047 1.37356 8.75842 1.10338 8.54679 0.981794C8.48037 0.94352 8.40494 0.923257 8.32727 0.924381C8.16966 0.924381 8.02332 1.00768 7.94453 1.1439L4.78686 6.61283C4.72607 6.7209 4.62475 6.7997 4.50655 6.83235C4.38722 6.86499 4.26002 6.84811 4.15418 6.78732C4.04724 6.7254 3.96957 6.62296 3.93804 6.50363C3.90652 6.38431 3.92454 6.25823 3.98758 6.15239L7.14524 0.682598C7.52237 0.030805 8.35652 -0.193232 9.00832 0.182766C9.66123 0.559888 9.88527 1.39405 9.50815 2.04699L6.87057 6.61303C6.78839 6.756 6.63642 6.8436 6.47094 6.8436Z" fill="#616161"/>
<path d="M19.5909 6.84369C19.4266 6.84369 19.2735 6.75588 19.1913 6.61291L16.0336 1.14398C15.9548 1.00664 15.8085 0.92334 15.6509 0.92334C15.5732 0.922214 15.4978 0.942477 15.4314 0.980753C15.2197 1.10346 15.1466 1.37364 15.2693 1.58528L17.9057 6.15247V6.15135C17.9688 6.25829 17.9868 6.38437 17.9553 6.50371C17.9237 6.62304 17.8461 6.72548 17.7402 6.78627C17.6333 6.84819 17.5061 6.86508 17.3868 6.83243C17.2686 6.79978 17.1672 6.71986 17.1076 6.61291L14.47 2.04572C14.094 1.39393 14.318 0.55977 14.9698 0.182648C15.6227 -0.19335 16.4569 0.0295487 16.8341 0.68248L19.9906 6.15227C20.0728 6.29412 20.0728 6.46974 19.9906 6.61271C19.9084 6.75568 19.7564 6.84369 19.5909 6.84369Z" fill="#616161"/>
<path d="M7.24867 17.9343C6.99426 17.9343 6.78711 17.7283 6.78711 17.4739V11.4557C6.78711 11.2013 6.99424 10.9952 7.24867 10.9952C7.50308 10.9952 7.71023 11.2012 7.71023 11.4557V17.4739C7.71023 17.5955 7.66182 17.7137 7.57514 17.7992C7.48846 17.8859 7.37137 17.9343 7.24867 17.9343Z" fill="#616161"/>
<path d="M10.4087 17.9343C10.1543 17.9343 9.94824 17.7283 9.94824 17.4739V11.4557C9.94824 11.2013 10.1542 10.9952 10.4087 10.9952C10.6642 10.9952 10.8702 11.2012 10.8702 11.4557V17.4739C10.8702 17.5955 10.8218 17.7137 10.7352 17.7992C10.6485 17.8859 10.5314 17.9343 10.4087 17.9343Z" fill="#616161"/>
<path d="M13.5683 17.9343C13.3139 17.9343 13.1079 17.7283 13.1079 17.4739V11.4557C13.1079 11.2013 13.3139 10.9952 13.5683 10.9952C13.8239 10.9952 14.0299 11.2012 14.0299 11.4557V17.4739C14.0299 17.5955 13.9815 17.7137 13.8948 17.7992C13.8081 17.8859 13.691 17.9343 13.5683 17.9343Z" fill="#616161"/>
<path d="M16.7291 17.9343C16.4736 17.9343 16.2676 17.7283 16.2676 17.4739V11.4557C16.2676 11.2013 16.4736 10.9952 16.7291 10.9952C16.9836 10.9952 17.1896 11.2012 17.1896 11.4557V17.4739C17.1896 17.5955 17.1412 17.7137 17.0545 17.7992C16.9689 17.8859 16.8507 17.9343 16.7291 17.9343Z" fill="#616161"/>
</svg>
