<svg width="32" height="28" viewBox="0 0 32 28" fill="none" xmlns="http://www.w3.org/2000/svg">
<path d="M0 1.3125C0 0.585156 0.585156 0 1.3125 0H3.80078C5.00391 0 6.07031 0.7 6.56797 1.75H29.0445C30.4828 1.75 31.5328 3.11719 31.1555 4.50625L28.9133 12.8352C28.4484 14.5523 26.8898 15.75 25.1125 15.75H9.33516L9.63047 17.3086C9.75078 17.9266 10.2922 18.375 10.9211 18.375H26.6875C27.4148 18.375 28 18.9602 28 19.6875C28 20.4148 27.4148 21 26.6875 21H10.9211C9.02891 21 7.40469 19.6547 7.05469 17.8008L4.23281 2.98047C4.19453 2.77266 4.01406 2.625 3.80078 2.625H1.3125C0.585156 2.625 0 2.03984 0 1.3125ZM7 25.375C7 25.0303 7.0679 24.6889 7.19982 24.3705C7.33173 24.052 7.52509 23.7626 7.76884 23.5188C8.0126 23.2751 8.30198 23.0817 8.62046 22.9498C8.93894 22.8179 9.28028 22.75 9.625 22.75C9.96972 22.75 10.3111 22.8179 10.6295 22.9498C10.948 23.0817 11.2374 23.2751 11.4812 23.5188C11.7249 23.7626 11.9183 24.052 12.0502 24.3705C12.1821 24.6889 12.25 25.0303 12.25 25.375C12.25 25.7197 12.1821 26.0611 12.0502 26.3795C11.9183 26.698 11.7249 26.9874 11.4812 27.2312C11.2374 27.4749 10.948 27.6683 10.6295 27.8002C10.3111 27.9321 9.96972 28 9.625 28C9.28028 28 8.93894 27.9321 8.62046 27.8002C8.30198 27.6683 8.0126 27.4749 7.76884 27.2312C7.52509 26.9874 7.33173 26.698 7.19982 26.3795C7.0679 26.0611 7 25.7197 7 25.375ZM25.375 22.75C26.0712 22.75 26.7389 23.0266 27.2312 23.5188C27.7234 24.0111 28 24.6788 28 25.375C28 26.0712 27.7234 26.7389 27.2312 27.2312C26.7389 27.7234 26.0712 28 25.375 28C24.6788 28 24.0111 27.7234 23.5188 27.2312C23.0266 26.7389 22.75 26.0712 22.75 25.375C22.75 24.6788 23.0266 24.0111 23.5188 23.5188C24.0111 23.0266 24.6788 22.75 25.375 22.75Z" fill="#0085FF"/>
</svg>
